<?xml version="1.0" standalone="no"?>
<!DOCTYPE svg PUBLIC "-//W3C//DTD SVG 20010904//EN"
 "http://www.w3.org/TR/2001/REC-SVG-20010904/DTD/svg10.dtd">
<svg version="1.0" xmlns="http://www.w3.org/2000/svg"
 width="2000.000000pt" height="800.000000pt" viewBox="0 0 2000.000000 800.000000"
 preserveAspectRatio="xMidYMid meet">
<metadata>
Created by potrace 1.15, written by Peter Selinger 2001-2017
</metadata>
<g transform="translate(0.000000,800.000000) scale(0.100000,-0.100000)"
fill="#000000" stroke="none">
<path d="M0 7725 l0 -275 1950 0 1950 0 0 275 0 275 -1950 0 -1950 0 0 -275z"/>
<path d="M4440 7725 l0 -275 2783 0 2782 1 -35 31 c-261 229 -620 412 -966
490 l-99 23 -2232 3 -2233 2 0 -275z"/>
<path d="M11080 7725 l0 -275 1681 0 c1414 0 1680 2 1677 14 -2 7 -46 131 -98
274 l-95 262 -1582 0 -1583 0 0 -275z"/>
<path d="M16741 7737 c-52 -144 -96 -268 -99 -274 -3 -10 333 -13 1662 -13
l1666 0 0 275 0 275 -1567 0 -1568 0 -94 -263z"/>
<path d="M0 6660 l0 -280 1950 0 1950 0 0 280 0 280 -1950 0 -1950 0 0 -280z"/>
<path d="M4440 6660 l0 -280 3100 0 c1915 0 3100 4 3100 9 0 22 -32 163 -56
244 -35 120 -69 203 -107 259 l-32 48 -3002 0 -3003 0 0 -280z"/>
<path d="M11080 6660 l0 -280 1866 0 c1576 0 1865 2 1862 14 -2 7 -43 133 -93
280 l-90 266 -1772 0 -1773 0 0 -280z"/>
<path d="M16435 6928 c-24 -65 -175 -526 -175 -535 0 -11 361 -13 1855 -13
l1855 0 0 280 0 280 -1765 0 c-1403 0 -1767 -3 -1770 -12z"/>
<path d="M1110 5600 l0 -280 850 0 850 0 0 280 0 280 -850 0 -850 0 0 -280z"/>
<path d="M5560 5600 l0 -280 845 0 845 0 0 280 0 280 -845 0 -845 0 0 -280z"/>
<path d="M8880 5600 l0 -280 852 2 852 3 23 80 c45 153 83 366 83 460 0 13
-97 15 -905 15 l-905 0 0 -280z"/>
<path d="M12190 5600 l0 -280 1500 0 c1194 0 1500 3 1499 13 0 6 -44 131 -97
277 l-97 265 -1403 3 -1402 2 0 -280z"/>
<path d="M16007 5698 c-36 -101 -82 -227 -101 -280 l-36 -98 1510 0 1510 0 0
280 0 280 -1408 0 -1408 0 -67 -182z"/>
<path d="M1110 4530 l0 -280 850 0 850 0 0 280 0 280 -850 0 -850 0 0 -280z"/>
<path d="M5560 4530 l0 -280 2158 0 2157 0 107 98 c128 117 224 222 288 317
45 67 80 128 80 140 0 3 -1078 5 -2395 5 l-2395 0 0 -280z"/>
<path d="M12190 4530 l0 -280 850 0 850 0 1 138 0 137 48 -135 48 -135 1549
-2 1549 -3 50 136 50 136 3 -136 3 -136 849 0 850 0 0 280 0 280 -1589 0
c-1262 0 -1590 -3 -1594 -12 -2 -7 -37 -103 -77 -213 -40 -110 -75 -203 -79
-207 -4 -5 -43 91 -86 212 l-80 220 -1597 0 -1598 0 0 -280z"/>
<path d="M1110 3470 l0 -280 850 0 850 0 0 280 0 280 -850 0 -850 0 0 -280z"/>
<path d="M5560 3470 l0 -280 2395 0 c1317 0 2395 2 2395 5 0 12 -35 73 -80
140 -64 95 -160 200 -288 317 l-107 98 -2157 0 -2158 0 0 -280z"/>
<path d="M12190 3470 l0 -280 850 0 850 0 0 280 0 280 -850 0 -850 0 0 -280z"/>
<path d="M14190 3738 c0 -7 45 -132 100 -278 l99 -265 1163 -3 1164 -2 97 274
c53 151 97 277 97 280 0 3 -612 6 -1360 6 -1081 0 -1360 -3 -1360 -12z"/>
<path d="M17190 3470 l0 -280 850 0 850 0 0 280 0 280 -850 0 -850 0 0 -280z"/>
<path d="M1110 2400 l0 -280 850 0 850 0 0 280 0 280 -850 0 -850 0 0 -280z"/>
<path d="M5560 2400 l0 -280 845 0 845 0 0 280 0 280 -845 0 -845 0 0 -280z"/>
<path d="M8880 2400 l0 -280 905 0 c808 0 905 2 905 15 0 94 -45 341 -88 480
l-18 60 -852 3 -852 2 0 -280z"/>
<path d="M12190 2400 l0 -280 850 0 850 0 0 280 0 280 -850 0 -850 0 0 -280z"/>
<path d="M14576 2658 c4 -13 48 -138 99 -278 l92 -255 780 -3 780 -2 96 262
c52 145 98 271 102 281 7 16 -44 17 -975 17 l-981 0 7 -22z"/>
<path d="M17190 2400 l0 -280 850 0 850 0 0 280 0 280 -850 0 -850 0 0 -280z"/>
<path d="M30 1340 l0 -280 1950 0 1950 0 0 280 0 280 -1950 0 -1950 0 0 -280z"/>
<path d="M4440 1340 l0 -280 3004 0 3004 0 30 48 c38 59 73 147 105 259 26 90
57 224 57 242 0 8 -937 11 -3100 11 l-3100 0 0 -280z"/>
<path d="M11110 1340 l0 -280 1390 0 1390 0 0 280 0 280 -1390 0 -1390 0 0
-280z"/>
<path d="M14952 1611 c2 -4 48 -130 103 -279 l100 -272 401 0 400 0 95 272
c51 149 96 275 97 280 2 4 -267 8 -598 8 -331 0 -600 -4 -598 -9z"/>
<path d="M17190 1340 l0 -280 1405 0 1405 0 0 280 0 280 -1405 0 -1405 0 0
-280z"/>
<path d="M30 275 l0 -275 1950 0 1950 0 0 275 0 275 -1950 0 -1950 0 0 -275z"/>
<path d="M4440 275 l0 -275 2233 3 2232 3 100 22 c345 79 704 262 965 490 l35
31 -2782 1 -2783 0 0 -275z"/>
<path d="M11110 275 l0 -275 1390 0 1390 0 0 275 0 275 -1390 0 -1390 0 0
-275z"/>
<path d="M15340 544 c0 -3 39 -115 86 -248 48 -132 91 -253 96 -269 11 -29 51
-39 61 -14 52 140 187 517 187 526 0 8 -61 11 -215 11 -118 0 -215 -3 -215 -6z"/>
<path d="M17190 275 l0 -275 1405 0 1405 0 0 275 0 275 -1405 0 -1405 0 0
-275z"/>
</g>
</svg>
