<?xml version="1.0" standalone="no"?>
<!DOCTYPE svg PUBLIC "-//W3C//DTD SVG 20010904//EN"
 "http://www.w3.org/TR/2001/REC-SVG-20010904/DTD/svg10.dtd">
<svg version="1.0" xmlns="http://www.w3.org/2000/svg"
 width="1000.000000pt" height="400.000000pt" viewBox="0 0 1000.000000 400.000000"
 preserveAspectRatio="xMidYMid meet">
<metadata>
Created by potrace 1.15, written by Peter Selinger 2001-2017
</metadata>
<g transform="translate(0.000000,400.000000) scale(0.100000,-0.100000)"
fill="#000000" stroke="none">
<path d="M0 3860 l0 -140 975 0 975 0 0 140 0 140 -975 0 -975 0 0 -140z"/>
<path d="M2220 3860 l0 -140 1390 0 c765 0 1390 4 1390 8 0 16 -143 115 -234
163 -50 26 -129 60 -176 76 l-85 28 -1142 3 -1143 2 0 -140z"/>
<path d="M5540 3860 l0 -140 840 0 c462 0 840 3 840 8 0 4 -21 67 -47 140
l-47 132 -793 0 -793 0 0 -140z"/>
<path d="M8367 3868 c-26 -73 -47 -136 -47 -140 0 -5 376 -8 835 -8 l835 0 0
140 0 140 -788 0 -787 0 -48 -132z"/>
<path d="M0 3330 l0 -140 975 0 975 0 0 140 0 140 -975 0 -975 0 0 -140z"/>
<path d="M2220 3330 l0 -140 1551 0 1552 0 -7 42 c-9 55 -52 183 -72 214 l-16
24 -1504 0 -1504 0 0 -140z"/>
<path d="M5540 3330 l0 -140 936 0 c745 0 935 3 931 13 -3 6 -25 69 -48 140
l-43 127 -888 0 -888 0 0 -140z"/>
<path d="M8209 3443 c-24 -61 -79 -228 -79 -240 0 -11 172 -13 930 -13 l930 0
0 140 0 140 -885 0 -885 0 -11 -27z"/>
<path d="M550 2800 l0 -140 430 0 430 0 0 140 0 140 -430 0 -430 0 0 -140z"/>
<path d="M2780 2800 l0 -140 425 0 425 0 0 140 0 140 -425 0 -425 0 0 -140z"/>
<path d="M4440 2800 l0 -140 429 0 428 0 21 93 c12 50 23 113 26 140 l6 47
-455 0 -455 0 0 -140z"/>
<path d="M6090 2800 l0 -140 756 0 c716 0 756 1 749 18 -4 9 -24 64 -45 122
-21 58 -41 113 -45 123 -7 16 -50 17 -711 17 l-704 0 0 -140z"/>
<path d="M8005 2863 c-15 -43 -38 -106 -51 -140 l-23 -63 759 0 760 0 0 140 0
140 -709 0 -708 0 -28 -77z"/>
<path d="M550 2265 l0 -145 430 0 430 0 0 145 0 145 -430 0 -430 0 0 -145z"/>
<path d="M2780 2265 l0 -145 1080 0 1081 0 83 83 c74 73 156 178 156 199 0 5
-540 8 -1200 8 l-1200 0 0 -145z"/>
<path d="M6090 2265 l0 -145 430 0 430 0 1 58 1 57 20 -57 20 -58 776 0 777 0
22 58 21 57 1 -57 1 -58 430 0 430 0 0 145 0 145 -798 0 -798 0 -40 -112 -41
-111 -39 111 -39 112 -802 0 -803 0 0 -145z"/>
<path d="M550 1735 l0 -145 430 0 430 0 0 145 0 145 -430 0 -430 0 0 -145z"/>
<path d="M2780 1735 l0 -145 1200 0 c660 0 1200 3 1200 8 0 21 -82 126 -156
200 l-83 82 -1081 0 -1080 0 0 -145z"/>
<path d="M6090 1735 l0 -145 430 0 430 0 0 145 0 145 -430 0 -430 0 0 -145z"/>
<path d="M7092 1868 c3 -7 26 -73 53 -145 l48 -133 583 0 582 0 16 43 c31 84
86 239 86 243 0 2 -309 4 -686 4 -545 0 -685 -3 -682 -12z"/>
<path d="M8590 1735 l0 -145 430 0 430 0 0 145 0 145 -430 0 -430 0 0 -145z"/>
<path d="M550 1200 l0 -140 430 0 430 0 0 140 0 140 -430 0 -430 0 0 -140z"/>
<path d="M2780 1200 l0 -140 425 0 425 0 0 140 0 140 -425 0 -425 0 0 -140z"/>
<path d="M4440 1200 l0 -140 455 0 455 0 -6 48 c-3 26 -14 89 -26 140 l-21 92
-428 0 -429 0 0 -140z"/>
<path d="M6090 1200 l0 -140 430 0 430 0 0 140 0 140 -430 0 -430 0 0 -140z"/>
<path d="M7321 1228 c23 -62 45 -125 51 -140 l10 -28 393 0 393 0 20 58 c11
31 34 94 51 140 l30 82 -494 0 -494 0 40 -112z"/>
<path d="M8590 1200 l0 -140 430 0 430 0 0 140 0 140 -430 0 -430 0 0 -140z"/>
<path d="M10 670 l0 -140 980 0 980 0 0 140 0 140 -980 0 -980 0 0 -140z"/>
<path d="M2220 670 l0 -140 1504 0 1504 0 16 24 c20 31 63 159 72 214 l7 42
-1552 0 -1551 0 0 -140z"/>
<path d="M5550 670 l0 -140 700 0 700 0 0 140 0 140 -700 0 -700 0 0 -140z"/>
<path d="M7494 748 c13 -35 36 -98 52 -141 l29 -77 203 2 204 3 49 138 48 137
-304 0 -304 0 23 -62z"/>
<path d="M8590 670 l0 -140 705 0 705 0 0 140 0 140 -705 0 -705 0 0 -140z"/>
<path d="M10 140 l0 -140 980 0 980 0 0 140 0 140 -980 0 -980 0 0 -140z"/>
<path d="M2220 140 l0 -140 1138 2 c1259 3 1158 -2 1327 69 107 44 315 177
315 200 0 5 -625 9 -1390 9 l-1390 0 0 -140z"/>
<path d="M5550 140 l0 -140 700 0 700 0 0 140 0 140 -700 0 -700 0 0 -140z"/>
<path d="M7670 271 c0 -5 21 -68 46 -141 36 -101 50 -130 63 -128 10 2 32 47
63 133 26 72 47 133 47 138 1 4 -48 7 -109 7 -60 0 -110 -4 -110 -9z"/>
<path d="M8590 140 l0 -140 705 0 705 0 0 140 0 140 -705 0 -705 0 0 -140z"/>
</g>
</svg>
